<svg width="24" height="24" viewBox="0 0 24 24" fill="none" xmlns="http://www.w3.org/2000/svg">
<path d="M5.28411 4.01942C6.29609 3.51343 7.41199 3.25 8.54342 3.25H9.72569C13.2443 3.25 16.1973 5.84724 16.6821 9.29117L18.3909 9.39797C21.8008 9.61109 24.1818 12.8651 23.3532 16.1796C23.2564 16.5666 23.1177 16.9417 22.9393 17.2985L22.8391 17.4989C22.3388 18.4994 21.5637 19.3364 20.6046 19.9119C19.6906 20.4603 18.6447 20.75 17.5787 20.75H9.39634C8.39089 20.75 7.392 20.5879 6.43814 20.2699L6.1939 20.1885C4.13064 19.5008 2.40014 18.0646 1.34393 16.1634L1.29284 16.0715C0.608909 14.8404 0.25 13.4553 0.25 12.047C0.25 10.9247 0.477953 9.81417 0.920035 8.78264L0.985981 8.62877C1.576 7.25207 2.49662 6.04224 3.66621 5.10657L3.99061 4.84704C4.39143 4.52639 4.825 4.24897 5.28411 4.01942ZM8.54342 4.75C7.64486 4.75 6.75863 4.95921 5.95493 5.36106C5.59031 5.54337 5.24598 5.76368 4.92766 6.01834L4.60325 6.27787C3.6264 7.05935 2.85748 8.06981 2.3647 9.21965L2.29875 9.37352C1.93669 10.2183 1.75 11.1279 1.75 12.047C1.75 13.2004 2.04394 14.3348 2.60408 15.343L2.65516 15.4349C3.52912 17.0081 4.96101 18.1964 6.66825 18.7655L6.91248 18.8469C7.71339 19.1139 8.55211 19.25 9.39634 19.25H17.5787C18.3728 19.25 19.1519 19.0342 19.8329 18.6256C20.5473 18.1969 21.1248 17.5734 21.4974 16.8281L21.5976 16.6277C21.7271 16.3688 21.8278 16.0966 21.898 15.8158C22.4992 13.4108 20.7716 11.0497 18.2973 10.895L16.1992 10.7639C15.6865 10.7319 15.2748 10.3286 15.2321 9.81665C14.9935 6.95282 12.5994 4.75 9.72569 4.75H8.54342Z" fill="#8762DB"/>
</svg>
