<svg width="24" height="24" viewBox="0 0 24 24" fill="none" xmlns="http://www.w3.org/2000/svg">
<path d="M14.4 15.2001V13.6001C14.76 13.4217 15.7896 12.1961 15.8976 11.2385C16.1808 11.2169 16.6256 10.9569 16.7568 9.93048C16.8272 9.37928 16.5472 9.06968 16.3776 8.97208C16.3776 8.97208 16.8 8.16968 16.8 7.20088C16.8 5.25848 16.0376 3.60088 14.4 3.60088C14.4 3.60088 13.8312 2.40088 12 2.40088C8.60642 2.40088 7.20002 4.57768 7.20002 7.20088C7.20002 8.08408 7.62242 8.97208 7.62242 8.97208C7.45282 9.06968 7.17282 9.38008 7.24322 9.93048C7.37442 10.9569 7.81922 11.2169 8.10242 11.2385C8.21042 12.1961 9.24002 13.4217 9.60002 13.6001V15.2001C8.80002 17.6001 2.40002 16.0001 2.40002 21.6001H21.6C21.6 16.0001 15.2 17.6001 14.4 15.2001Z" fill="#4F90F0"/>
</svg>
