<svg width="36" height="36" viewBox="0 0 36 36" fill="none" xmlns="http://www.w3.org/2000/svg">
<path fill-rule="evenodd" clip-rule="evenodd" d="M28.6875 18C28.6883 20.3195 27.8926 22.569 26.4336 24.3723C24.9745 26.1755 22.9406 27.423 20.6719 27.9063C18.4032 28.3895 16.0374 28.0791 13.9701 27.0271C11.9029 25.975 10.2596 24.245 9.315 22.1265L6.18525 23.3977C7.42595 26.2405 9.60757 28.5694 12.3633 29.993C15.1191 31.4165 18.281 31.8479 21.3174 31.2145C24.3537 30.5812 27.0795 28.9217 29.0363 26.5152C30.9932 24.1086 32.0618 21.1017 32.0625 18C32.0626 15.1824 31.1812 12.4353 29.5416 10.1439C27.9021 7.85238 25.5867 6.13133 22.9199 5.22189C20.2531 4.31245 17.3686 4.26021 14.6706 5.07249C11.9726 5.88477 9.59642 7.52086 7.875 9.75146V5.62496H4.5V14.625L6.1875 16.3125H14.0625V12.9375H9.792C10.906 11.0062 12.6263 9.49666 14.6859 8.64304C16.7455 7.78942 19.0292 7.63946 21.1828 8.21644C23.3363 8.79342 25.2392 10.0651 26.5962 11.8341C27.9531 13.6031 28.6883 15.7705 28.6875 18Z" fill="#353535"/>
</svg>
