<svg width="36" height="49" viewBox="0 0 36 49" fill="none" xmlns="http://www.w3.org/2000/svg">
<path d="M35.9999 17.1133V46.4334C36.0018 46.7545 35.9519 47.0728 35.8531 47.3703C35.7543 47.6678 35.6085 47.9385 35.4241 48.1671C35.2397 48.3957 35.0202 48.5777 34.7783 48.7027C34.5363 48.8276 34.2766 48.893 34.014 48.8953H1.986C1.45962 48.8953 0.954781 48.6398 0.582392 48.1851C0.210003 47.7304 0.000530083 47.1135 0 46.4701V2.42521C0 1.11237 0.893999 0 1.996 0H22V14.6686C22 15.317 22.2107 15.9388 22.5858 16.3973C22.9608 16.8558 23.4695 17.1133 24 17.1133H35.9999ZM35.9999 12.2238H26V0.00733434L35.9999 12.2238ZM9.99999 12.2238V17.1133H16V12.2238H9.99999ZM9.99999 22.0029V26.8924H26V22.0029H9.99999ZM9.99999 31.7819V36.6715H26V31.7819H9.99999Z" fill="white"/>
</svg>
