<svg width="24" height="24" viewBox="0 0 24 24" fill="none" xmlns="http://www.w3.org/2000/svg">
<g clip-path="url(#clip0_0_158)">
<path d="M15.1875 -0.0108887C14.9756 -0.00757641 14.7737 0.0796716 14.626 0.231707C14.4784 0.383742 14.3971 0.588143 14.4 0.800049V1.60005H13.6C13.494 1.59855 13.3887 1.61813 13.2904 1.65767C13.192 1.6972 13.1025 1.75589 13.027 1.83032C12.9515 1.90476 12.8915 1.99345 12.8506 2.09126C12.8097 2.18907 12.7886 2.29403 12.7886 2.40005C12.7886 2.50607 12.8097 2.61103 12.8506 2.70884C12.8915 2.80664 12.9515 2.89534 13.027 2.96978C13.1025 3.04421 13.192 3.1029 13.2904 3.14243C13.3887 3.18196 13.494 3.20155 13.6 3.20005H14.4V4.00005C14.3985 4.10606 14.4181 4.21131 14.4576 4.30968C14.4971 4.40806 14.5558 4.49759 14.6303 4.57309C14.7047 4.64859 14.7934 4.70854 14.8912 4.74945C14.989 4.79037 15.094 4.81144 15.2 4.81144C15.306 4.81144 15.411 4.79037 15.5088 4.74945C15.6066 4.70854 15.6953 4.64859 15.7697 4.57309C15.8442 4.49759 15.9029 4.40806 15.9424 4.30968C15.9819 4.21131 16.0015 4.10606 16 4.00005V3.20005H16.8C16.906 3.20155 17.0113 3.18196 17.1096 3.14243C17.208 3.1029 17.2975 3.04421 17.373 2.96978C17.4485 2.89534 17.5085 2.80664 17.5494 2.70884C17.5903 2.61103 17.6114 2.50607 17.6114 2.40005C17.6114 2.29403 17.5903 2.18907 17.5494 2.09126C17.5085 1.99345 17.4485 1.90476 17.373 1.83032C17.2975 1.75589 17.208 1.6972 17.1096 1.65767C17.0113 1.61813 16.906 1.59855 16.8 1.60005H16V0.800049C16.0015 0.693017 15.9814 0.58678 15.9411 0.487628C15.9008 0.388475 15.841 0.298424 15.7652 0.222807C15.6894 0.147191 15.5993 0.0875451 15.5 0.0474033C15.4008 0.00726153 15.2945 -0.0125604 15.1875 -0.0108887ZM9.9125 2.63442C5.6157 3.58882 2.4 7.41605 2.4 12C2.4 17.3017 6.6984 21.6 12 21.6C16.584 21.6 20.4112 18.3843 21.3656 14.0876C20.1368 14.7915 18.7176 15.2001 17.2 15.2001C12.5608 15.2001 8.8 11.4392 8.8 6.80005C8.8 5.28245 9.2085 3.86322 9.9125 2.63442ZM20 5.60005C19.5584 5.60005 19.2 5.95845 19.2 6.40005V7.20005C19.2 7.64165 18.8416 8.00005 18.4 8.00005H17.6C17.1584 8.00005 16.8 8.35845 16.8 8.80005C16.8 9.24165 17.1584 9.60005 17.6 9.60005H18.4C18.8416 9.60005 19.2 9.95845 19.2 10.4001V11.2C19.2 11.6417 19.5584 12 20 12C20.4416 12 20.8 11.6417 20.8 11.2V10.4001C20.8 9.95845 21.1584 9.60005 21.6 9.60005H22.4C22.8416 9.60005 23.2 9.24165 23.2 8.80005C23.2 8.35845 22.8416 8.00005 22.4 8.00005H21.6C21.1584 8.00005 20.8 7.64165 20.8 7.20005V6.40005C20.8 5.95845 20.4416 5.60005 20 5.60005Z" fill="#4F90F0"/>
</g>
<defs>
<clipPath id="clip0_0_158">
<rect width="24" height="24" fill="white"/>
</clipPath>
</defs>
</svg>
