<svg width="32" height="31" viewBox="0 0 32 31" fill="none" xmlns="http://www.w3.org/2000/svg">
<path d="M27.7382 22.2811L24.1364 16.2361C24.8734 14.9206 25.2574 13.4457 25.2528 11.9478C25.2528 9.54983 24.2726 7.25006 22.5278 5.55442C20.783 3.85879 18.4166 2.90619 15.9491 2.90619C13.4817 2.90619 11.1152 3.85879 9.37047 5.55442C7.62569 7.25006 6.64549 9.54983 6.64549 11.9478C6.64091 13.4457 7.02488 14.9206 7.76193 16.2361L4.16008 22.2811C4.0432 22.4779 3.98178 22.7011 3.98201 22.9282C3.98224 23.1554 4.04412 23.3785 4.1614 23.575C4.27868 23.7715 4.44721 23.9345 4.65 24.0475C4.85278 24.1605 5.08264 24.2195 5.31639 24.2186H9.13089L11.0714 27.3961C11.1368 27.5014 11.2173 27.5971 11.3106 27.6803C11.557 27.9111 11.8855 28.0406 12.2277 28.0419H12.4138C12.6144 28.0152 12.8061 27.9444 12.9743 27.8347C13.1424 27.725 13.2826 27.5794 13.384 27.409L15.9491 23.1207L18.5143 27.4478C18.6172 27.6157 18.758 27.7588 18.9261 27.8662C19.0941 27.9736 19.2851 28.0425 19.4845 28.0678H19.6706C20.0174 28.0698 20.3513 27.94 20.601 27.7061C20.6904 27.6277 20.7666 27.5362 20.8269 27.4349L22.7674 24.2574H26.5819C26.8161 24.2583 27.0464 24.199 27.2494 24.0856C27.4525 23.9722 27.6211 23.8086 27.7382 23.6115C27.8624 23.4106 27.928 23.1807 27.928 22.9463C27.928 22.712 27.8624 22.482 27.7382 22.2811ZM12.2144 24.2574L11.0315 22.3328C10.915 22.1418 10.7499 21.9833 10.552 21.8724C10.3541 21.7616 10.1302 21.7021 9.90177 21.6999H7.60244L9.50304 18.4966C10.8118 19.7222 12.4614 20.5484 14.2479 20.8732L12.2144 24.2574ZM15.9491 18.4061C14.6348 18.4061 13.35 18.0274 12.2571 17.3177C11.1643 16.6081 10.3125 15.5994 9.80953 14.4193C9.30655 13.2392 9.17495 11.9407 9.43137 10.6879C9.68778 9.43508 10.3207 8.28432 11.2501 7.38111C12.1795 6.4779 13.3636 5.8628 14.6527 5.61361C15.9418 5.36441 17.278 5.49231 18.4923 5.98112C19.7066 6.46994 20.7444 7.29771 21.4746 8.35978C22.2049 9.42184 22.5946 10.6705 22.5946 11.9478C22.5946 13.6607 21.8945 15.3034 20.6482 16.5145C19.4019 17.7257 17.7116 18.4061 15.9491 18.4061ZM21.9965 21.6999C21.7681 21.7021 21.5442 21.7616 21.3463 21.8724C21.1484 21.9833 20.9833 22.1418 20.8668 22.3328L19.6839 24.2574L17.6637 20.8345C19.444 20.503 21.0874 19.6775 22.3952 18.4578L24.2958 21.6611L21.9965 21.6999Z" fill="white"/>
</svg>
