<svg width="27" height="26" viewBox="0 0 27 26" fill="none" xmlns="http://www.w3.org/2000/svg">
<path d="M18.2792 8.23553C18.1564 8.11516 18.0102 8.01962 17.8492 7.95443C17.6882 7.88923 17.5154 7.85566 17.341 7.85566C17.1666 7.85566 16.9938 7.88923 16.8328 7.95443C16.6718 8.01962 16.5256 8.11516 16.4028 8.23553L13.3767 11.1892L10.3506 8.23553C10.1018 7.99371 9.7643 7.85785 9.4124 7.85785C9.0605 7.85785 8.72302 7.99371 8.47419 8.23553C8.22536 8.47735 8.08557 8.80534 8.08557 9.14732C8.08557 9.48931 8.22536 9.8173 8.47419 10.0591L11.5135 13L8.47419 15.9408C8.35033 16.0602 8.25203 16.2023 8.18494 16.3587C8.11785 16.5152 8.08331 16.6831 8.08331 16.8526C8.08331 17.0222 8.11785 17.19 8.18494 17.3465C8.25203 17.503 8.35033 17.645 8.47419 17.7644C8.59703 17.8848 8.74318 17.9803 8.90421 18.0455C9.06524 18.1107 9.23796 18.1443 9.4124 18.1443C9.58685 18.1443 9.75957 18.1107 9.9206 18.0455C10.0816 17.9803 10.2278 17.8848 10.3506 17.7644L13.3767 14.8107L16.4028 17.7644C16.5256 17.8848 16.6718 17.9803 16.8328 18.0455C16.9938 18.1107 17.1666 18.1443 17.341 18.1443C17.5154 18.1443 17.6882 18.1107 17.8492 18.0455C18.0102 17.9803 18.1564 17.8848 18.2792 17.7644C18.4031 17.645 18.5014 17.503 18.5685 17.3465C18.6356 17.19 18.6701 17.0222 18.6701 16.8526C18.6701 16.6831 18.6356 16.5152 18.5685 16.3587C18.5014 16.2023 18.4031 16.0602 18.2792 15.9408L15.2399 13L18.2792 10.0591C18.4031 9.93973 18.5014 9.7977 18.5685 9.6412C18.6356 9.48471 18.6701 9.31686 18.6701 9.14732C18.6701 8.97779 18.6356 8.80994 18.5685 8.65344C18.5014 8.49695 18.4031 8.35492 18.2792 8.23553ZM22.7192 3.92056C21.5002 2.694 20.0421 1.71566 18.4299 1.04261C16.8177 0.36957 15.0837 0.0153024 13.3291 0.000484879C11.5746 -0.0143326 9.8345 0.310596 8.21051 0.956312C6.58652 1.60203 5.11111 2.5556 3.87039 3.76138C2.62966 4.96717 1.64845 6.40102 0.984025 7.97928C0.319597 9.55753 -0.014748 11.2486 0.00049893 12.9538C0.0157458 14.6589 0.380279 16.3441 1.07283 17.9109C1.76538 19.4777 2.77207 20.8947 4.03418 22.0794C5.25316 23.3059 6.71129 24.2843 8.32348 24.9573C9.93568 25.6304 11.6697 25.9846 13.4243 25.9995C15.1788 26.0143 16.9189 25.6894 18.5429 25.0436C20.1669 24.3979 21.6423 23.4444 22.883 22.2386C24.1237 21.0328 25.105 19.5989 25.7694 18.0207C26.4338 16.4424 26.7682 14.7514 26.7529 13.0462C26.7377 11.341 26.3731 9.65587 25.6806 8.08907C24.988 6.52228 23.9813 5.10521 22.7192 3.92056ZM20.856 20.2686C19.1276 21.9502 16.8528 22.9974 14.419 23.2317C11.9853 23.4661 9.54323 22.8731 7.50891 21.5539C5.47459 20.2346 3.97386 18.2707 3.26242 15.9967C2.55098 13.7227 2.67284 11.2793 3.60724 9.08284C4.54164 6.88637 6.23076 5.07269 8.38683 3.95082C10.5429 2.82895 13.0325 2.46828 15.4315 2.93027C17.8305 3.39226 19.9905 4.64832 21.5435 6.48445C23.0964 8.32059 23.9462 10.6232 23.9482 13C23.9529 14.3501 23.682 15.6876 23.1512 16.9353C22.6205 18.183 21.8403 19.3159 20.856 20.2686Z" fill="white"/>
</svg>
