<svg width="341" height="166" viewBox="0 0 341 166" fill="none" xmlns="http://www.w3.org/2000/svg">
<g style="mix-blend-mode:multiply" opacity="0.2">
<g style="mix-blend-mode:multiply" opacity="0.3">
<g style="mix-blend-mode:multiply" opacity="0.3">
<path d="M170.5 158.376C233.323 158.376 289.694 161.164 328.18 165.582V153.852H12.8203V165.582C51.3057 161.164 107.677 158.376 170.5 158.376Z" fill="#5D5D5D"/>
</g>
</g>
</g>
<path d="M341 0H0V153.852H341V0Z" fill="#080A4C"/>
<path d="M339.033 33.0344C337.395 33.0397 335.803 33.5713 334.491 34.5509C333.508 33.1722 332.259 32.0034 330.819 31.1127C329.379 30.222 327.775 29.6272 326.102 29.3632C324.43 29.0991 322.721 29.1711 321.076 29.5748C319.432 29.9786 317.884 30.706 316.523 31.7147C315.962 31.011 315.265 30.4283 314.473 30.0016C313.68 29.5748 312.81 29.313 311.914 29.2318C311.017 29.1506 310.114 29.2517 309.258 29.5291C308.402 29.8065 307.611 30.2544 306.933 30.8458C304.852 28.6386 302.157 27.1072 299.195 26.4502C296.234 25.7932 293.144 26.0407 290.325 27.1609C287.506 28.281 285.089 30.222 283.386 32.7323C281.683 35.2426 280.774 38.2065 280.776 41.2397C280.783 42.0858 280.857 42.93 280.997 43.7644C276.147 44.8748 271.911 47.8103 269.169 51.9615C268.478 50.9262 267.554 50.068 266.47 49.4567C265.386 48.8454 264.174 48.4981 262.931 48.4431C261.688 48.388 260.449 48.6266 259.315 49.1397C258.182 49.6527 257.185 50.4257 256.406 51.3959C252.172 48.807 247.131 47.877 242.252 48.7851C237.374 49.6933 233.005 52.3754 229.986 56.3142C228.678 55.6377 227.224 55.292 225.751 55.3073C224.278 55.3227 222.832 55.6986 221.538 56.4022C220.244 57.1058 219.142 58.1157 218.328 59.3435C217.515 60.5714 217.015 61.9798 216.871 63.4457C214.331 60.9266 210.971 59.4035 207.402 59.1538C203.833 58.904 200.294 59.9442 197.428 62.085C196.607 61.037 195.529 60.2196 194.298 59.7122C193.067 59.2049 191.726 59.025 190.406 59.1901C189.085 59.3552 187.829 59.8597 186.761 60.6543C185.693 61.4489 184.85 62.5067 184.312 63.7244C179.764 61.2797 174.482 60.5696 169.45 61.726C164.417 62.8824 159.975 65.8267 156.95 70.0116C155.113 68.6852 152.934 67.9143 150.671 67.7908C148.408 67.6673 146.158 68.1963 144.187 69.3148C141.462 65.675 137.402 63.2667 132.901 62.6195C128.4 61.9724 123.827 63.1394 120.186 65.8638C118.964 64.2388 117.205 63.0999 115.223 62.6496C113.24 62.1993 111.162 62.4669 109.358 63.4047C108.102 60.7016 106.202 58.3482 103.824 56.5514C101.446 54.7545 98.6632 53.5693 95.72 53.0998C92.7767 52.6303 89.7632 52.8909 86.9442 53.8588C84.1253 54.8266 81.5872 56.472 79.553 58.6504C77.8893 56.1956 75.5343 54.2901 72.7864 53.1752C70.0386 52.0602 67.0216 51.7862 64.1178 52.3878C62.6202 50.1093 60.6754 48.1588 58.4012 46.6545C56.1271 45.1503 53.5712 44.1237 50.8884 43.6369C48.2056 43.1502 45.4518 43.2135 42.7942 43.823C40.1366 44.4325 37.6305 45.5755 35.4279 47.1826C34.2235 45.683 32.6988 44.4718 30.9656 43.6378C29.2324 42.8038 27.3345 42.3681 25.4111 42.3627C24.8187 42.3691 24.2273 42.4129 23.6405 42.4939C22.227 40.0543 20.2879 37.9601 17.964 36.3636C15.64 34.7671 12.9897 33.7082 10.2054 33.2639C10.284 32.809 10.3251 32.3484 10.3284 31.8868C10.3154 29.5466 9.3772 27.3066 7.7186 25.6557C6.06 24.0048 3.81567 23.077 1.47548 23.0749C0.980828 23.0768 0.487228 23.1207 0 23.2061V124.031H168.516C172.241 125.069 176.178 125.069 179.902 124.031H341V33.2967C340.358 33.1259 339.697 33.0377 339.033 33.0344Z" fill="#1B2576"/>
<path d="M1.96731 65.3638C3.60174 65.362 5.19359 65.8849 6.50851 66.8557C7.49519 65.4802 8.74597 64.3151 10.1878 63.4282C11.6297 62.5414 13.2338 61.9506 14.9064 61.6904C16.5791 61.4302 18.2868 61.5058 19.9299 61.9127C21.5731 62.3196 23.1187 63.0497 24.4766 64.0605C25.0375 63.3568 25.7352 62.7741 26.5274 62.3474C27.3197 61.9207 28.1901 61.6588 29.0863 61.5776C29.9825 61.4964 30.8859 61.5976 31.7419 61.8749C32.598 62.1523 33.3889 62.6002 34.0672 63.1916C36.1478 60.9844 38.8434 59.453 41.8047 58.796C44.7659 58.139 47.8562 58.3866 50.6751 59.5067C53.4939 60.6268 55.9113 62.5678 57.614 65.0781C59.3166 67.5884 60.226 70.5523 60.2242 73.5855C60.2174 74.4343 60.1434 75.2813 60.0029 76.1184C64.8545 77.2249 69.0918 80.1613 71.8313 84.3156C72.5202 83.2792 73.4436 82.4197 74.5267 81.8069C75.6098 81.1941 76.8221 80.8453 78.0652 80.7886C79.3084 80.7319 80.5474 80.969 81.6817 81.4807C82.8161 81.9923 83.8139 82.7642 84.5942 83.7336C88.8275 81.1446 93.8694 80.2146 98.7477 81.1227C103.626 82.0309 107.995 84.713 111.014 88.6518C112.322 87.9753 113.776 87.6296 115.249 87.645C116.722 87.6603 118.168 88.0362 119.462 88.7398C120.756 89.4434 121.858 90.4533 122.672 91.6811C123.485 92.909 123.985 94.3174 124.129 95.7833C126.666 93.255 130.027 91.7232 133.6 91.4674C137.172 91.2115 140.718 92.2488 143.589 94.3898C144.41 93.3419 145.488 92.5244 146.718 92.0171C147.949 91.5098 149.29 91.3299 150.611 91.495C151.932 91.6601 153.187 92.1645 154.255 92.9592C155.323 93.7538 156.167 94.8115 156.704 96.0292C161.253 93.5846 166.534 92.8745 171.567 94.0309C176.599 95.1873 181.041 98.1315 184.066 102.316C185.903 100.988 188.083 100.217 190.346 100.095C192.61 99.9731 194.86 100.505 196.829 101.628C198.177 99.8241 199.868 98.3037 201.804 97.1535C203.74 96.0034 205.884 95.246 208.113 94.9248C210.342 94.6035 212.612 94.7247 214.794 95.2813C216.977 95.8379 219.028 96.819 220.83 98.1687C222.052 96.5436 223.811 95.4047 225.794 94.9544C227.776 94.5041 229.855 94.7717 231.659 95.7095C232.914 93.0064 234.814 90.653 237.192 88.8562C239.57 87.0594 242.353 85.8741 245.296 85.4046C248.24 84.9351 251.253 85.1958 254.072 86.1636C256.891 87.1314 259.429 88.7768 261.463 90.9552C262.833 88.933 264.677 87.2777 266.835 86.1343C268.993 84.991 271.399 84.3946 273.841 84.3975C274.869 84.3949 275.894 84.5021 276.899 84.7172C278.395 82.4372 280.339 80.485 282.613 78.9793C284.886 77.4736 287.442 76.4458 290.126 75.9582C292.809 75.4706 295.563 75.5335 298.221 76.143C300.879 76.7525 303.386 77.8959 305.588 79.5038C306.794 78.0123 308.318 76.8087 310.048 75.9805C311.778 75.1524 313.671 74.7206 315.589 74.7167C316.182 74.7217 316.773 74.7683 317.36 74.8561C318.77 72.4142 320.709 70.3183 323.033 68.7215C325.357 67.1246 328.009 66.0671 330.795 65.6261C330.716 65.1685 330.675 64.7052 330.672 64.2408C330.674 61.8936 331.607 59.6431 333.267 57.9833C334.927 56.3235 337.177 55.3901 339.525 55.3879C340.019 55.3925 340.513 55.4391 341 55.5273V146.515H172.484C168.759 147.554 164.822 147.554 161.098 146.515H0V65.6261C0.641932 65.4553 1.30305 65.3672 1.96731 65.3638Z" fill="#2436A4"/>
<path d="M339.033 83.8975C337.4 83.8967 335.809 84.4164 334.491 85.3812C333.507 84.0041 332.257 82.8368 330.817 81.9475C329.376 81.0582 327.773 80.4647 326.1 80.2014C324.428 79.9382 322.72 80.0106 321.075 80.4143C319.431 80.8181 317.884 81.5452 316.523 82.5532C315.962 81.8495 315.265 81.2668 314.473 80.8401C313.68 80.4133 312.81 80.1515 311.914 80.0703C311.017 79.9891 310.114 80.0903 309.258 80.3676C308.402 80.645 307.611 81.0929 306.933 81.6843C304.854 79.4729 302.158 77.9377 299.195 77.2782C296.233 76.6188 293.14 76.8655 290.32 77.9863C287.499 79.1071 285.081 81.0503 283.379 83.5633C281.677 86.0763 280.77 89.0431 280.776 92.0782C280.783 92.9243 280.857 93.7685 280.997 94.6029C276.146 95.7101 271.909 98.6464 269.169 102.8C268.478 101.765 267.554 100.907 266.47 100.295C265.386 99.6839 264.174 99.3367 262.931 99.2816C261.688 99.2265 260.449 99.4651 259.315 99.9782C258.182 100.491 257.185 101.264 256.406 102.234C252.172 99.6455 247.131 98.7155 242.252 99.6236C237.374 100.532 233.005 103.214 229.986 107.153C228.678 106.476 227.224 106.131 225.751 106.146C224.278 106.161 222.832 106.537 221.538 107.241C220.244 107.944 219.142 108.954 218.328 110.182C217.515 111.41 217.015 112.818 216.871 114.284C214.33 111.767 210.971 110.244 207.403 109.993C203.835 109.742 200.296 110.779 197.428 112.915C196.605 111.87 195.527 111.054 194.297 110.548C193.067 110.042 191.726 109.863 190.406 110.028C189.087 110.193 187.832 110.697 186.764 111.49C185.696 112.283 184.851 113.339 184.312 114.555C179.764 112.11 174.482 111.4 169.45 112.556C164.417 113.713 159.975 116.657 156.95 120.842C155.113 119.515 152.934 118.745 150.671 118.621C148.408 118.498 146.158 119.027 144.187 120.145C141.462 116.505 137.402 114.097 132.901 113.45C128.4 112.803 123.827 113.97 120.186 116.694C118.964 115.069 117.205 113.93 115.223 113.48C113.24 113.03 111.162 113.297 109.358 114.235C108.11 111.52 106.213 109.153 103.833 107.346C101.454 105.538 98.6654 104.344 95.715 103.87C92.7645 103.396 89.7427 103.656 86.9166 104.628C84.0906 105.599 81.5475 107.252 79.512 109.44C77.8465 106.987 75.4909 105.084 72.7434 103.971C69.9958 102.857 66.9798 102.584 64.0768 103.185C62.5792 100.907 60.6344 98.9563 58.3603 97.4521C56.0861 95.9478 53.5302 94.9212 50.8474 94.4345C48.1646 93.9477 45.4109 94.011 42.7532 94.6205C40.0956 95.23 37.5895 96.373 35.3869 97.9801C34.1804 96.4979 32.6595 95.3023 30.9342 94.4801C29.2088 93.6578 27.3223 93.2294 25.4111 93.2258C24.8187 93.2322 24.2273 93.276 23.6405 93.357C22.227 90.9174 20.2879 88.8232 17.964 87.2267C15.64 85.6302 12.9897 84.5713 10.2054 84.127C10.2836 83.6721 10.3248 83.2115 10.3284 82.7499C10.3284 80.402 9.39565 78.1502 7.73541 76.49C6.07518 74.8297 3.82341 73.897 1.47548 73.897C0.980828 73.8989 0.487228 73.9428 0 74.0282V153.852H341V84.1762C340.359 83.9998 339.698 83.9062 339.033 83.8975Z" fill="#4E5DCC"/>
<path d="M291.593 41.9378C287.956 41.9535 284.445 40.5406 281.753 37.978C279.062 35.4154 277.385 31.8892 277.054 28.0953C276.723 24.3014 277.763 20.5155 279.967 17.4848C282.171 14.4541 285.379 12.3987 288.959 11.7243C285.543 11.1377 282.037 11.5954 278.863 13.0425C275.688 14.4896 272.98 16.8647 271.061 19.8832C269.143 22.9017 268.097 26.4355 268.047 30.0611C267.998 33.6867 268.948 37.2502 270.784 40.3247C272.619 43.3991 275.262 45.854 278.396 47.3951C281.53 48.9362 285.022 49.4981 288.453 49.0136C291.884 48.529 295.109 47.0185 297.741 44.6631C300.373 42.3077 302.301 39.2073 303.293 35.7335C301.944 37.6564 300.182 39.2198 298.15 40.2976C296.117 41.3754 293.871 41.9373 291.593 41.9378Z" fill="#C8AA53"/>
<path d="M121.047 14.3285L118.038 12.8039L115.661 15.181L116.186 11.853L113.186 10.3284L116.514 9.80374L117.038 6.47571L118.571 9.47585L121.899 8.95124L119.514 11.3284L121.047 14.3285Z" fill="#A4791D"/>
<path d="M203.272 27.4849L205.469 24.7553L204.469 21.3945L207.748 22.6404L210.625 20.6403L210.461 24.1487L213.248 26.2718L209.863 27.198L208.699 30.5015L206.78 27.5669L203.272 27.4849Z" fill="#A4791D"/>
<path d="M252.201 37.2805L250.414 36.9526L249.127 38.2314L248.897 36.428L247.282 35.6001L248.922 34.8214L249.209 33.0344L250.455 34.3541L252.25 34.0754L251.381 35.6657L252.201 37.2805Z" fill="#C8AA53"/>
<path d="M256.57 10.8284L255.611 8.07414L252.807 7.29541L255.127 5.54123L254.996 2.62306L257.389 4.29527L260.119 3.27063L259.275 6.05765L261.086 8.33645L258.176 8.39383L256.57 10.8284Z" fill="#C8AA53"/>
<path d="M265.275 69.4787L258.947 68.9541L254.922 73.8642L253.471 67.6836L247.553 65.3802L252.979 62.0849L253.34 55.7404L258.152 59.8881L264.3 58.2733L261.84 64.1342L265.275 69.4787Z" fill="#DFC976"/>
<path d="M132.523 35.6328L132.08 33.9197L130.424 33.3131L131.916 32.3704L131.982 30.608L133.342 31.731L135.039 31.2474L134.384 32.8868L135.367 34.3541L133.613 34.2475L132.523 35.6328Z" fill="#C8AA53"/>
<path d="M82.2417 25.575L84.7008 20.7141L82.0859 15.927L87.4714 16.7631L91.2093 12.8039L92.0782 18.1812L97.0047 20.5092L92.1602 23.0011L91.4634 28.403L87.6026 24.5668L82.2417 25.575Z" fill="#DFC976"/>
<path d="M47.2728 20.9026L45.2317 21.6896L44.7235 23.8126L43.3463 22.1158L41.1659 22.2879L42.3545 20.4518L41.5102 18.4353L43.625 19.0009L45.2891 17.5746L45.4038 19.755L47.2728 20.9026Z" fill="#C8AA53"/>
<path d="M24.8619 38.2314L23.1241 37.1657L21.2633 37.9936L21.7388 36.0099L20.3698 34.4935L22.4027 34.3295L23.4274 32.5672L24.2061 34.4525L26.2062 34.8705L24.6487 36.1985L24.8619 38.2314Z" fill="#DFC976"/>
<path d="M321.597 47.6662L319.007 47.3302L317.253 49.2729L316.778 46.699L314.384 45.6416L316.679 44.3874L316.958 41.7889L318.851 43.5841L321.417 43.0349L320.294 45.4038L321.597 47.6662Z" fill="#C8AA53"/>
<path d="M328.18 17.5746L327.434 20.1895L329.155 22.288L326.442 22.3781L324.975 24.6733L324.048 22.1158L321.417 21.4273L323.565 19.755L323.401 17.0418L325.647 18.5665L328.18 17.5746Z" fill="#C8AA53"/>
<path d="M53.2812 58.593L52.15 57.9373L50.9697 58.5029L51.2402 57.2241L50.3385 56.2733L51.6418 56.1339L52.2648 54.9863L52.7976 56.1831L54.0846 56.4208L53.1091 57.2979L53.2812 58.593Z" fill="#A4791D"/>
<path d="M284.76 58.7979L284.489 57.5191L283.284 57.0109L284.424 56.3633L284.53 55.06L285.497 55.9371L286.768 55.6338L286.235 56.8306L286.915 57.9454L285.612 57.806L284.76 58.7979Z" fill="#A4791D"/>
<path d="M163.737 16.3533L164.229 15.1401L163.508 14.0499L164.819 14.14L165.631 13.1236L165.951 14.3941L167.172 14.8532L166.065 15.5417L166 16.8533L165 16.009L163.737 16.3533Z" fill="#DFC976"/>
<path d="M12.8203 11.8367L11.2055 12.6318L10.9432 14.4105L9.689 13.1236L7.91842 13.4269L8.75452 11.8367L7.91842 10.2464L9.689 10.5497L10.9432 9.26276L11.2055 11.0415L12.8203 11.8367Z" fill="#C8AA53"/>
</svg>
