<svg width="32" height="31" viewBox="0 0 32 31" fill="none" xmlns="http://www.w3.org/2000/svg">
<path d="M23.9236 17.0242V12.9167C23.9217 11.0866 23.2534 9.31617 22.0371 7.91898C20.8208 6.5218 19.135 5.58801 17.2782 5.28299V3.87508C17.2782 3.53251 17.1381 3.20397 16.8889 2.96173C16.6396 2.7195 16.3016 2.58342 15.9491 2.58342C15.5966 2.58342 15.2585 2.7195 15.0093 2.96173C14.76 3.20397 14.62 3.53251 14.62 3.87508V5.28299C12.7632 5.58801 11.0773 6.5218 9.86101 7.91898C8.64471 9.31617 7.97642 11.0866 7.97451 12.9167V17.0242C7.19892 17.2907 6.52713 17.7838 6.05123 18.4359C5.57534 19.088 5.31864 19.8672 5.31633 20.6667V23.25C5.31633 23.5926 5.45636 23.9211 5.70561 24.1634C5.95486 24.4056 6.29292 24.5417 6.64542 24.5417H10.8188C11.1248 25.6362 11.793 26.6024 12.7202 27.2913C13.6473 27.9801 14.782 28.3534 15.9491 28.3534C17.1162 28.3534 18.2508 27.9801 19.178 27.2913C20.1051 26.6024 20.7733 25.6362 21.0794 24.5417H25.2527C25.6052 24.5417 25.9433 24.4056 26.1925 24.1634C26.4418 23.9211 26.5818 23.5926 26.5818 23.25V20.6667C26.5795 19.8672 26.3228 19.088 25.8469 18.4359C25.371 17.7838 24.6992 17.2907 23.9236 17.0242ZM10.6327 12.9167C10.6327 11.5464 11.1928 10.2323 12.1898 9.26334C13.1868 8.29441 14.5391 7.75006 15.9491 7.75006C17.3591 7.75006 18.7113 8.29441 19.7083 9.26334C20.7053 10.2323 21.2654 11.5464 21.2654 12.9167V16.7917H10.6327V12.9167ZM15.9491 25.8333C15.4852 25.8306 15.0301 25.71 14.6291 25.4834C14.228 25.2568 13.895 24.9321 13.663 24.5417H18.2351C18.0032 24.9321 17.6701 25.2568 17.2691 25.4834C16.868 25.71 16.413 25.8306 15.9491 25.8333ZM23.9236 21.9584H7.97451V20.6667C7.97451 20.3241 8.11454 19.9956 8.3638 19.7533C8.61305 19.5111 8.95111 19.375 9.30361 19.375H22.5945C22.947 19.375 23.2851 19.5111 23.5344 19.7533C23.7836 19.9956 23.9236 20.3241 23.9236 20.6667V21.9584Z" fill="white"/>
</svg>
