<svg width="24" height="24" viewBox="0 0 24 24" fill="none" xmlns="http://www.w3.org/2000/svg">
<path d="M14.4 15.2V13.6C14.76 13.4216 15.7896 12.196 15.8976 11.2384C16.1808 11.2168 16.6256 10.9568 16.7568 9.9304C16.8272 9.3792 16.5472 9.0696 16.3776 8.972C16.3776 8.972 16.8 8.1696 16.8 7.2008C16.8 5.2584 16.0376 3.6008 14.4 3.6008C14.4 3.6008 13.8312 2.4008 12 2.4008C8.60639 2.4008 7.19999 4.5776 7.19999 7.2008C7.19999 8.084 7.62239 8.972 7.62239 8.972C7.45279 9.0696 7.17279 9.38 7.24319 9.9304C7.37439 10.9568 7.81919 11.2168 8.10239 11.2384C8.21039 12.196 9.23999 13.4216 9.59999 13.6V15.2C8.79999 17.6 2.39999 16 2.39999 21.6H21.6C21.6 16 15.2 17.6 14.4 15.2Z" fill="#EBEBF5" fill-opacity="0.6"/>
</svg>
