<svg width="27" height="26" viewBox="0 0 27 26" fill="none" xmlns="http://www.w3.org/2000/svg">
<path d="M4.01184 20.8014H9.6819C9.8579 20.8024 10.0324 20.7696 10.1953 20.705C10.3582 20.6403 10.5064 20.545 10.6314 20.4245L19.8853 11.4182L23.6832 7.80524C23.8086 7.68443 23.908 7.54069 23.9759 7.38232C24.0438 7.22395 24.0788 7.05408 24.0788 6.88251C24.0788 6.71095 24.0438 6.54108 23.9759 6.38271C23.908 6.22434 23.8086 6.0806 23.6832 5.95978L18.0132 0.384425C17.8888 0.262614 17.7409 0.165929 17.578 0.0999496C17.415 0.0339697 17.2402 0 17.0637 0C16.8871 0 16.7124 0.0339697 16.5494 0.0999496C16.3864 0.165929 16.2385 0.262614 16.1142 0.384425L12.3431 4.06234L3.06237 13.0687C2.93843 13.1901 2.84037 13.3341 2.77382 13.4925C2.70727 13.6508 2.67354 13.8204 2.67456 13.9914V19.5018C2.67456 19.8465 2.81545 20.177 3.06624 20.4208C3.31703 20.6645 3.65717 20.8014 4.01184 20.8014ZM17.0637 3.13961L20.8482 6.81753L18.9492 8.66299L15.1647 4.98507L17.0637 3.13961ZM5.34912 14.5243L13.2792 6.81753L17.0637 10.4954L9.13362 18.2022H5.34912V14.5243ZM25.4083 23.4007H1.33728C0.982611 23.4007 0.642468 23.5376 0.39168 23.7813C0.140891 24.025 0 24.3556 0 24.7003C0 25.045 0.140891 25.3755 0.39168 25.6192C0.642468 25.863 0.982611 25.9999 1.33728 25.9999H25.4083C25.763 25.9999 26.1031 25.863 26.3539 25.6192C26.6047 25.3755 26.7456 25.045 26.7456 24.7003C26.7456 24.3556 26.6047 24.025 26.3539 23.7813C26.1031 23.5376 25.763 23.4007 25.4083 23.4007Z" fill="white"/>
</svg>
