<svg width="24" height="24" viewBox="0 0 24 24" fill="none" xmlns="http://www.w3.org/2000/svg">
<path d="M12 3.5C12.4797 3.5 12.8686 3.86551 12.8686 4.31638V19.6836C12.8686 20.1345 12.4797 20.5 12 20.5C11.5203 20.5 11.1314 20.1345 11.1314 19.6836V4.31638C11.1314 3.86551 11.5203 3.5 12 3.5Z" fill="#8762DB"/>
<path d="M18.1314 8.30226C18.6111 8.30226 19 8.66777 19 9.11864V14.8814C19 15.3322 18.6111 15.6977 18.1314 15.6977C17.6517 15.6977 17.2628 15.3322 17.2628 14.8814V9.11864C17.2628 8.66777 17.6517 8.30226 18.1314 8.30226Z" fill="#8762DB"/>
<path d="M6.73723 9.11864C6.73723 8.66777 6.34833 8.30226 5.86861 8.30226C5.38889 8.30226 5 8.66777 5 9.11864V14.8814C5 15.3322 5.38889 15.6977 5.86861 15.6977C6.34833 15.6977 6.73723 15.3322 6.73723 14.8814V9.11864Z" fill="#8762DB"/>
</svg>
