<svg width="24" height="24" viewBox="0 0 24 24" fill="none" xmlns="http://www.w3.org/2000/svg">
<g clip-path="url(#clip0_0_214)">
<path d="M15.1875 -0.0109445C14.9756 -0.0076322 14.7737 0.0796158 14.626 0.231651C14.4784 0.383686 14.3971 0.588087 14.4 0.799993V1.59999H13.6C13.494 1.59849 13.3887 1.61808 13.2904 1.65761C13.192 1.69714 13.1025 1.75583 13.027 1.83027C12.9515 1.9047 12.8915 1.9934 12.8506 2.0912C12.8097 2.18901 12.7886 2.29397 12.7886 2.39999C12.7886 2.50601 12.8097 2.61098 12.8506 2.70878C12.8915 2.80659 12.9515 2.89529 13.027 2.96972C13.1025 3.04416 13.192 3.10285 13.2904 3.14238C13.3887 3.18191 13.494 3.20149 13.6 3.19999H14.4V3.99999C14.3985 4.106 14.4181 4.21125 14.4576 4.30963C14.4971 4.408 14.5558 4.49754 14.6303 4.57303C14.7047 4.64853 14.7934 4.70848 14.8912 4.7494C14.989 4.79032 15.094 4.81139 15.2 4.81139C15.306 4.81139 15.411 4.79032 15.5088 4.7494C15.6066 4.70848 15.6953 4.64853 15.7697 4.57303C15.8442 4.49754 15.9029 4.408 15.9424 4.30963C15.9819 4.21125 16.0015 4.106 16 3.99999V3.19999H16.8C16.906 3.20149 17.0113 3.18191 17.1096 3.14238C17.208 3.10285 17.2975 3.04416 17.373 2.96972C17.4485 2.89529 17.5085 2.80659 17.5494 2.70878C17.5903 2.61098 17.6114 2.50601 17.6114 2.39999C17.6114 2.29397 17.5903 2.18901 17.5494 2.0912C17.5085 1.9934 17.4485 1.9047 17.373 1.83027C17.2975 1.75583 17.208 1.69714 17.1096 1.65761C17.0113 1.61808 16.906 1.59849 16.8 1.59999H16V0.799993C16.0015 0.692961 15.9814 0.586724 15.9411 0.487572C15.9008 0.38842 15.841 0.298369 15.7652 0.222752C15.6894 0.147135 15.5993 0.0874893 15.5 0.0473475C15.4008 0.00720574 15.2945 -0.0126162 15.1875 -0.0109445ZM9.9125 2.63437C5.6157 3.58877 2.4 7.41599 2.4 12C2.4 17.3016 6.6984 21.6 12 21.6C16.584 21.6 20.4112 18.3843 21.3656 14.0875C20.1368 14.7915 18.7176 15.2 17.2 15.2C12.5608 15.2 8.8 11.4392 8.8 6.79999C8.8 5.28239 9.2085 3.86317 9.9125 2.63437ZM20 5.59999C19.5584 5.59999 19.2 5.95839 19.2 6.39999V7.19999C19.2 7.64159 18.8416 7.99999 18.4 7.99999H17.6C17.1584 7.99999 16.8 8.35839 16.8 8.79999C16.8 9.24159 17.1584 9.59999 17.6 9.59999H18.4C18.8416 9.59999 19.2 9.95839 19.2 10.4V11.2C19.2 11.6416 19.5584 12 20 12C20.4416 12 20.8 11.6416 20.8 11.2V10.4C20.8 9.95839 21.1584 9.59999 21.6 9.59999H22.4C22.8416 9.59999 23.2 9.24159 23.2 8.79999C23.2 8.35839 22.8416 7.99999 22.4 7.99999H21.6C21.1584 7.99999 20.8 7.64159 20.8 7.19999V6.39999C20.8 5.95839 20.4416 5.59999 20 5.59999Z" fill="#EBEBF5" fill-opacity="0.6"/>
</g>
<defs>
<clipPath id="clip0_0_214">
<rect width="24" height="24" fill="white"/>
</clipPath>
</defs>
</svg>
