<svg width="36" height="36" viewBox="0 0 36 36" fill="none" xmlns="http://www.w3.org/2000/svg">
<path d="M7.875 31.5C7.57663 31.5 7.29048 31.3815 7.07951 31.1705C6.86853 30.9595 6.75 30.6734 6.75 30.375V5.62499C6.75003 5.4295 6.80101 5.23739 6.8979 5.0676C6.99479 4.89781 7.13426 4.75619 7.30255 4.65672C7.47084 4.55724 7.66215 4.50334 7.85761 4.50032C8.05308 4.4973 8.24597 4.54526 8.41725 4.63949L30.9172 17.0145C31.0936 17.1116 31.2407 17.2543 31.3432 17.4276C31.4456 17.601 31.4997 17.7986 31.4997 18C31.4997 18.2013 31.4456 18.399 31.3432 18.5724C31.2407 18.7457 31.0936 18.8884 30.9172 18.9855L8.41725 31.3605C8.25114 31.4519 8.06462 31.4999 7.875 31.5Z" fill="#272727"/>
</svg>
