<svg width="25" height="26" viewBox="0 0 25 26" fill="none" xmlns="http://www.w3.org/2000/svg">
<path d="M21.875 9.75004H21.0417C20.934 9.26394 20.751 8.79927 20.5 8.37421L21.0833 7.76754C21.254 7.5603 21.3432 7.29372 21.333 7.02107C21.3229 6.74842 21.2142 6.48978 21.0287 6.29685C20.8432 6.10391 20.5945 5.99088 20.3323 5.98035C20.0702 5.96982 19.8139 6.06256 19.6146 6.24004L19.0313 6.84671C18.6225 6.58564 18.1757 6.39538 17.7083 6.28337V5.41671C17.7083 5.12939 17.5986 4.85384 17.4032 4.65068C17.2079 4.44751 16.9429 4.33337 16.6667 4.33337C16.3904 4.33337 16.1254 4.44751 15.9301 4.65068C15.7347 4.85384 15.625 5.12939 15.625 5.41671V6.28337C15.1603 6.39367 14.7167 6.58408 14.3125 6.84671L13.7188 6.24004C13.5195 6.06256 13.2631 5.96982 13.001 5.98035C12.7388 5.99088 12.4901 6.10391 12.3046 6.29685C12.1191 6.48978 12.0104 6.74842 12.0003 7.02107C11.9902 7.29372 12.0793 7.5603 12.25 7.76754L12.8333 8.38504C12.7396 8.54754 12.6667 8.73171 12.5833 8.90504C12.0478 8.74781 11.494 8.66762 10.9375 8.66671C9.43631 8.66582 7.98496 9.2269 6.84882 10.2474C5.71269 11.2678 4.96767 12.6795 4.75 14.2242C3.90228 14.4714 3.16922 15.0293 2.68621 15.7949C2.2032 16.5604 2.00287 17.4819 2.12223 18.3891C2.24158 19.2962 2.67255 20.1279 3.33554 20.7303C3.99853 21.3328 4.84875 21.6654 5.72917 21.6667H15.2813C16.4775 21.6667 17.6247 21.1725 18.4706 20.2928C19.3165 19.4131 19.7917 18.22 19.7917 16.9759C19.7908 16.4006 19.6847 15.8308 19.4792 15.2967L19.6146 15.4267C19.8086 15.6268 20.0705 15.7397 20.3438 15.7409C20.4808 15.7417 20.6167 15.7144 20.7437 15.6605C20.8706 15.6065 20.986 15.5271 21.0833 15.4267C21.2773 15.2237 21.3862 14.9492 21.3862 14.663C21.3862 14.3768 21.2773 14.1022 21.0833 13.8992L20.5 13.2925C20.751 12.8675 20.934 12.4028 21.0417 11.9167H21.875C22.1513 11.9167 22.4162 11.8026 22.6116 11.5994C22.8069 11.3962 22.9167 11.1207 22.9167 10.8334C22.9167 10.5461 22.8069 10.2705 22.6116 10.0673C22.4162 9.86418 22.1513 9.75004 21.875 9.75004ZM15.2813 19.5H5.72917C5.31477 19.5 4.91734 19.3288 4.62431 19.0241C4.33129 18.7193 4.16667 18.306 4.16667 17.875C4.16667 17.4441 4.33129 17.0307 4.62431 16.726C4.91734 16.4212 5.31477 16.25 5.72917 16.25C6.00543 16.25 6.27039 16.1359 6.46574 15.9327C6.66109 15.7296 6.77083 15.454 6.77083 15.1667C6.7753 14.1437 7.12763 13.1553 7.76546 12.3765C8.40329 11.5978 9.28548 11.0788 10.2559 10.9114C11.2263 10.7441 12.2223 10.9392 13.0677 11.4622C13.9131 11.9852 14.5533 12.8025 14.875 13.7692C14.9345 13.9554 15.0416 14.1212 15.1847 14.2491C15.3278 14.3769 15.5016 14.4619 15.6875 14.495C16.2788 14.61 16.8079 14.9492 17.1723 15.4469C17.5368 15.9445 17.7105 16.5652 17.6599 17.1885C17.6093 17.8119 17.338 18.3935 16.8985 18.8206C16.459 19.2476 15.8827 19.4898 15.2813 19.5ZM18.4062 12.6209C18.2226 12.8006 18.0114 12.947 17.7812 13.0542C17.4348 12.8196 17.06 12.6338 16.6667 12.5017C16.1881 11.4149 15.4358 10.4828 14.4896 9.80421C14.6034 9.52632 14.7659 9.27285 14.9688 9.05671C15.4348 8.60748 16.0468 8.35788 16.6823 8.35788C17.3177 8.35788 17.9298 8.60748 18.3958 9.05671C18.8426 9.53575 19.0924 10.1769 19.0924 10.8442C19.0924 11.5115 18.8426 12.1527 18.3958 12.6317L18.4062 12.6209Z" fill="white"/>
</svg>
