<svg width="24" height="25" viewBox="0 0 24 25" fill="none" xmlns="http://www.w3.org/2000/svg">
<path d="M23.6036 19.2505L20.0249 13.2443C20.7572 11.9372 21.1387 10.4718 21.1342 8.98356C21.1342 6.60097 20.1603 4.31597 18.4267 2.63122C16.6931 0.946479 14.3419 0 11.8903 0C9.43863 0 7.08741 0.946479 5.35384 2.63122C3.62028 4.31597 2.64637 6.60097 2.64637 8.98356C2.64182 10.4718 3.02333 11.9372 3.75564 13.2443L0.176927 19.2505C0.0607991 19.446 -0.000228807 19.6677 6.4463e-07 19.8934C0.000230096 20.1192 0.0617086 20.3408 0.178234 20.5361C0.294759 20.7313 0.46221 20.8932 0.663692 21.0055C0.865174 21.1178 1.09356 21.1764 1.32581 21.1755H5.11581L7.04382 24.3326C7.10882 24.4372 7.18886 24.5323 7.28152 24.615C7.52632 24.8443 7.8527 24.973 8.19271 24.9743H8.37758C8.57695 24.9478 8.76744 24.8773 8.93451 24.7684C9.10159 24.6594 9.24082 24.5147 9.34159 24.3454L11.8903 20.0847L14.4389 24.384C14.5412 24.5508 14.6811 24.693 14.8481 24.7997C15.015 24.9064 15.2048 24.9749 15.4029 25H15.5878C15.9324 25.002 16.2641 24.873 16.5122 24.6406C16.601 24.5627 16.6768 24.4718 16.7367 24.3711L18.6647 21.214H22.4547C22.6874 21.2149 22.9162 21.1561 23.118 21.0434C23.3197 20.9307 23.4873 20.7682 23.6036 20.5724C23.727 20.3728 23.7922 20.1443 23.7922 19.9114C23.7922 19.6786 23.727 19.4501 23.6036 19.2505ZM8.1795 21.214L7.0042 19.3018C6.88848 19.1121 6.72439 18.9546 6.52778 18.8444C6.33117 18.7343 6.10866 18.6752 5.88173 18.673H3.59717L5.48556 15.4902C6.78595 16.708 8.42488 17.5289 10.2 17.8516L8.1795 21.214ZM11.8903 15.4004C10.5844 15.4004 9.30778 15.024 8.22195 14.319C7.13613 13.6139 6.28984 12.6117 5.79009 11.4392C5.29034 10.2667 5.15958 8.97644 5.41435 7.7317C5.66912 6.48696 6.29798 5.34359 7.22139 4.44618C8.14481 3.54877 9.32131 2.93762 10.6021 2.69003C11.8829 2.44243 13.2105 2.56951 14.417 3.05518C15.6235 3.54086 16.6548 4.36332 17.3803 5.41856C18.1058 6.4738 18.493 7.71443 18.493 8.98356C18.493 10.6854 17.7974 12.3176 16.5591 13.5209C15.3209 14.7243 13.6414 15.4004 11.8903 15.4004ZM17.8988 18.673C17.6719 18.6752 17.4494 18.7343 17.2528 18.8444C17.0561 18.9546 16.8921 19.1121 16.7763 19.3018L15.601 21.214L13.5938 17.8131C15.3626 17.4838 16.9955 16.6636 18.295 15.4517L20.1834 18.6345L17.8988 18.673Z" fill="white"/>
</svg>
