<svg width="27" height="23" viewBox="0 0 27 23" fill="none" xmlns="http://www.w3.org/2000/svg">
<path d="M16.1099 10.2043H14.7687V8.90088C14.7687 8.5552 14.6274 8.22368 14.3759 7.97925C14.1244 7.73482 13.7833 7.5975 13.4276 7.5975C13.0719 7.5975 12.7308 7.73482 12.4793 7.97925C12.2277 8.22368 12.0864 8.5552 12.0864 8.90088V10.2043H10.7453C10.3896 10.2043 10.0485 10.3416 9.79696 10.586C9.54544 10.8304 9.40414 11.162 9.40414 11.5076C9.40414 11.8533 9.54544 12.1848 9.79696 12.4293C10.0485 12.6737 10.3896 12.811 10.7453 12.811H12.0864V14.1144C12.0864 14.4601 12.2277 14.7916 12.4793 15.036C12.7308 15.2805 13.0719 15.4178 13.4276 15.4178C13.7833 15.4178 14.1244 15.2805 14.3759 15.036C14.6274 14.7916 14.7687 14.4601 14.7687 14.1144V12.811H16.1099C16.4656 12.811 16.8067 12.6737 17.0582 12.4293C17.3098 12.1848 17.4511 11.8533 17.4511 11.5076C17.4511 11.162 17.3098 10.8304 17.0582 10.586C16.8067 10.3416 16.4656 10.2043 16.1099 10.2043ZM24.3714 2.38398C22.9413 1.00852 21.0525 0.175099 19.0457 0.034088C17.0389 -0.106923 15.0464 0.453765 13.4276 1.61498C11.7212 0.381511 9.59726 -0.177803 7.48351 0.0496706C5.36976 0.277145 3.4232 1.27451 2.03582 2.84092C0.648448 4.40733 -0.0766916 6.42644 0.00643136 8.49164C0.0895543 10.5568 0.974765 12.5147 2.4838 13.971L10.5307 21.8565C11.2851 22.5887 12.3077 23 13.374 23C14.4402 23 15.4628 22.5887 16.2172 21.8565L24.2641 13.971C25.0566 13.2185 25.6883 12.3212 26.1229 11.3307C26.5574 10.3402 26.7862 9.27593 26.7962 8.19918C26.8062 7.12242 26.5971 6.05437 26.181 5.0564C25.7648 4.05843 25.1499 3.15022 24.3714 2.38398ZM22.4804 12.1072L14.4335 19.9275C14.3088 20.0496 14.1605 20.1466 13.997 20.2128C13.8336 20.279 13.6583 20.313 13.4812 20.313C13.3042 20.313 13.1289 20.279 12.9655 20.2128C12.802 20.1466 12.6537 20.0496 12.529 19.9275L4.48212 12.1072C3.43033 11.0623 2.84137 9.65875 2.84137 8.19705C2.84137 6.73536 3.43033 5.33177 4.48212 4.28691C5.55391 3.25853 6.99942 2.68189 8.50557 2.68189C10.0117 2.68189 11.4572 3.25853 12.529 4.28691C12.6537 4.40908 12.802 4.50604 12.9655 4.57221C13.1289 4.63838 13.3042 4.67245 13.4812 4.67245C13.6583 4.67245 13.8336 4.63838 13.997 4.57221C14.1605 4.50604 14.3088 4.40908 14.4335 4.28691C15.5052 3.25853 16.9508 2.68189 18.4569 2.68189C19.9631 2.68189 21.4086 3.25853 22.4804 4.28691C23.5402 5.33293 24.1343 6.74207 24.1343 8.21009C24.1343 9.67811 23.5402 11.0872 22.4804 12.1333V12.1072Z" fill="white"/>
</svg>
