<svg width="17" height="20" viewBox="0 0 17 20" fill="none" xmlns="http://www.w3.org/2000/svg">
<path fill-rule="evenodd" clip-rule="evenodd" d="M17 2.00016V15.0012C16.9996 15.638 16.784 16.2582 16.3844 16.772C15.9847 17.2858 15.4217 17.6666 14.7768 17.8592C14.132 18.0519 13.4387 18.0464 12.7974 17.8436C12.156 17.6408 11.5999 17.2512 11.2094 16.7312C10.819 16.2111 10.6144 15.5876 10.6254 14.9509C10.6364 14.3141 10.8624 13.6972 11.2706 13.1894C11.6788 12.6815 12.2481 12.3091 12.8961 12.126C13.5441 11.943 14.2371 11.9587 14.875 12.171V4.00031H6.375V17.0013C6.37464 17.6381 6.15903 18.2583 5.75935 18.7722C5.35968 19.286 4.79667 19.6668 4.15182 19.8594C3.50696 20.0521 2.81371 20.0466 2.17237 19.8438C1.53104 19.641 0.974902 19.2514 0.584435 18.7313C0.193969 18.2113 -0.0105694 17.5878 0.000420803 16.951C0.011411 16.3143 0.237359 15.6974 0.645568 15.1895C1.05378 14.6817 1.62307 14.3093 2.27106 14.1262C2.91906 13.9431 3.61213 13.9588 4.25 14.1711V2.00016C4.25 1.46968 4.47388 0.960935 4.8724 0.585832C5.27091 0.21073 5.81141 0 6.375 0H14.875C15.4386 0 15.9791 0.21073 16.3776 0.585832C16.7761 0.960935 17 1.46968 17 2.00016Z" fill="#EBEBF5" fill-opacity="0.6"/>
</svg>
