<svg width="32" height="31" viewBox="0 0 32 31" fill="none" xmlns="http://www.w3.org/2000/svg">
<path d="M18.6072 14.2082H17.2781V12.9166C17.2781 12.574 17.1381 12.2455 16.8888 12.0032C16.6396 11.761 16.3015 11.6249 15.949 11.6249C15.5965 11.6249 15.2584 11.761 15.0092 12.0032C14.7599 12.2455 14.6199 12.574 14.6199 12.9166V14.2082H13.2908C12.9383 14.2082 12.6003 14.3443 12.351 14.5865C12.1017 14.8288 11.9617 15.1573 11.9617 15.4999C11.9617 15.8425 12.1017 16.171 12.351 16.4132C12.6003 16.6555 12.9383 16.7916 13.2908 16.7916H14.6199V18.0832C14.6199 18.4258 14.7599 18.7543 15.0092 18.9966C15.2584 19.2388 15.5965 19.3749 15.949 19.3749C16.3015 19.3749 16.6396 19.2388 16.8888 18.9966C17.1381 18.7543 17.2781 18.4258 17.2781 18.0832V16.7916H18.6072C18.9597 16.7916 19.2977 16.6555 19.547 16.4132C19.7963 16.171 19.9363 15.8425 19.9363 15.4999C19.9363 15.1573 19.7963 14.8288 19.547 14.5865C19.2977 14.3443 18.9597 14.2082 18.6072 14.2082ZM26.7944 6.45826C25.3772 5.09517 23.5053 4.26924 21.5166 4.1295C19.5279 3.98975 17.5532 4.5454 15.949 5.69618C14.2579 4.47379 12.1531 3.91951 10.0584 4.14494C7.96361 4.37037 6.03455 5.35877 4.65965 6.91109C3.28474 8.46342 2.56612 10.4644 2.6485 12.511C2.73087 14.5576 3.60813 16.4979 5.1036 17.9411L13.0782 25.7557C13.8258 26.4814 14.8392 26.8889 15.8958 26.8889C16.9525 26.8889 17.9659 26.4814 18.7135 25.7557L26.6881 17.9411C27.4735 17.1954 28.0995 16.3062 28.5301 15.3245C28.9608 14.3429 29.1875 13.2882 29.1974 12.2212C29.2073 11.1541 29.0001 10.0957 28.5877 9.10665C28.1753 8.11766 27.5659 7.21762 26.7944 6.45826ZM24.9204 16.0941L16.9458 23.844C16.8223 23.9651 16.6753 24.0612 16.5133 24.1268C16.3513 24.1923 16.1776 24.2261 16.0022 24.2261C15.8267 24.2261 15.653 24.1923 15.491 24.1268C15.3291 24.0612 15.1821 23.9651 15.0585 23.844L7.08395 16.0941C6.04162 15.0586 5.45795 13.6676 5.45795 12.2191C5.45795 10.7705 6.04162 9.37955 7.08395 8.34408C8.1461 7.32495 9.57862 6.75349 11.0712 6.75349C12.5638 6.75349 13.9964 7.32495 15.0585 8.34408C15.1821 8.46515 15.3291 8.56124 15.491 8.62682C15.653 8.69239 15.8267 8.72616 16.0022 8.72616C16.1776 8.72616 16.3513 8.69239 16.5133 8.62682C16.6753 8.56124 16.8223 8.46515 16.9458 8.34408C18.008 7.32495 19.4405 6.75349 20.9331 6.75349C22.4257 6.75349 23.8582 7.32495 24.9204 8.34408C25.9707 9.3807 26.5594 10.7772 26.5594 12.232C26.5594 13.6868 25.9707 15.0833 24.9204 16.1199V16.0941Z" fill="white"/>
</svg>
